<svg xmlns="http://www.w3.org/2000/svg" width="65" height="22" fill="none" viewBox="0 0 65 22" class="svg"><g id="Logo" class="Logo"><g id="Logo Orus" class="Logo Orus"><path id="Orus (Stroke)" fill="#0B1F3A" fill-rule="evenodd" d="M34.321 6.429v8.983c0 1.758.456 3.049 1.317 3.925.864.858 2.083 1.307 3.702 1.307 1.055 0 1.97-.136 2.75-.4.794-.27 1.462-.614 2.01-1.028l.537-.405v1.913h3.993V6.429h-4.187v8.059c0 1.176-.405 2.41-1.474 2.9-.566.26-1.165.39-1.794.39-.828 0-1.513-.19-1.998-.623l-.007-.006-.006-.006c-.468-.466-.67-1.157-.67-2V6.428h-4.173Z" class="Orus (Stroke)" clip-rule="evenodd"></path><path id="Orus (Stroke)_2" fill="#0B1F3A" fill-rule="evenodd" d="M22.65 6.346v14.129h4.086l-.003-8.676.16-.097c.648-.393 1.445-.74 2.383-1.042a11.88 11.88 0 0 1 2.54-.58v-3.6c-.773.094-1.547.274-2.323.54l-.004.002h-.003c-.905.292-1.651.62-2.244.98l-.51.309.004-1.966h-4.087Z" class="Orus (Stroke)" clip-rule="evenodd"></path><path id="Orus (Stroke)_3" fill="#0B1F3A" fill-rule="evenodd" d="M57.752 6.446c-2.283 0-3.88.377-4.857 1.074h-.001c-.945.67-1.424 1.63-1.424 2.931 0 1.134.311 1.94.884 2.477.637.558 1.583 1.068 2.861 1.518 1.121.378 2 .666 2.637.864.673.21 1.197.583 1.197 1.215a.95.95 0 0 1-.237.658c-.163.178-.387.277-.631.326-.418.087-1.07.127-1.932.127-.746 0-1.588-.083-2.524-.245-.748-.13-1.43-.304-2.044-.527v2.962c.546.193 1.262.36 2.153.5 1.004.156 2.07.235 3.197.235 2.155 0 3.731-.375 4.774-1.08 1.026-.692 1.538-1.673 1.538-2.986 0-.785-.126-1.41-.358-1.89-.227-.47-.618-.884-1.197-1.237l-.003-.002-.003-.002c-.585-.376-1.424-.734-2.533-1.069h-.002l-.003-.001a42.056 42.056 0 0 0-2.415-.712l-.005-.002-.005-.001c-.31-.088-.578-.215-.772-.402a.98.98 0 0 1-.313-.726.84.84 0 0 1 .307-.665c.19-.159.443-.245.721-.29.547-.105 1.2-.155 1.953-.155.604 0 1.274.062 2.01.184a8.35 8.35 0 0 1 1.535.398V7.047a16.049 16.049 0 0 0-1.883-.396 16.76 16.76 0 0 0-2.625-.205Z" class="Orus (Stroke)" clip-rule="evenodd"></path><path id="Orus (Stroke)_4" fill="#0B1F3A" fill-rule="evenodd" d="M9.82 1.36c-3.265 0-5.564.765-7.124 2.241C1.148 5.066.334 7.52.334 11.05c0 3.324.81 5.703 2.365 7.212 1.56 1.514 3.858 2.3 7.122 2.3 3.099 0 5.563-.787 7.121-2.3 1.555-1.509 2.366-3.888 2.366-7.212 0-3.531-.815-5.984-2.363-7.449-1.558-1.474-4.023-2.242-7.124-2.242ZM5.79 6.287c.852-1.005 2.341-1.465 4.03-1.465 1.67 0 3.139.459 3.972 1.465.842.972 1.222 2.59 1.222 4.762 0 2.006-.385 3.553-1.217 4.577-.833 1.03-2.304 1.5-3.976 1.5-1.692 0-3.182-.47-4.034-1.497l-.002-.003-.003-.003c-.81-1.024-1.184-2.57-1.184-4.574 0-2.173.37-3.79 1.191-4.762Z" class="Orus (Stroke)" clip-rule="evenodd"></path></g></g><defs><clipPath id="clip0_13772_114848" class="clip0_13772"><path fill="#fff" d="M0 0h64.827v22H0z"></path></clipPath></defs></svg>