<?xml version="1.0" encoding="UTF-8"?>
<svg id="Calque_1" data-name="Calque 1" xmlns="http://www.w3.org/2000/svg" xmlns:xlink="http://www.w3.org/1999/xlink" viewBox="0 0 859.24 155.28">
  <defs>
    <style>
      .cls-1 {
        stroke: #f5ead0;
      }

      .cls-1, .cls-2 {
        fill: none;
        stroke-miterlimit: 10;
      }

      .cls-3 {
        fill: url(#Dégradé_sans_nom_5);
      }

      .cls-4 {
        fill: #fff;
        opacity: .39;
      }

      .cls-5 {
        fill: #ffb000;
      }

      .cls-6 {
        fill: #b99992;
      }

      .cls-2 {
        stroke: #135e4f;
      }

      .cls-7 {
        fill: url(#Dégradé_sans_nom_29);
      }

      .cls-8 {
        fill: #6c5c5e;
      }

      .cls-9 {
        fill: url(#Nouvelle_nuance_de_dégradé_1_3);
      }
    </style>
    <linearGradient id="Dégradé_sans_nom_5" data-name="Dégradé sans nom 5" x1="692.72" y1="109.43" x2="760.9" y2="41.24" gradientUnits="userSpaceOnUse">
      <stop offset="0" stop-color="#135e4f"/>
      <stop offset=".13" stop-color="#347261"/>
      <stop offset=".56" stop-color="#9cb19b"/>
      <stop offset=".86" stop-color="#ddd8bf"/>
      <stop offset="1" stop-color="#f7e8ce"/>
    </linearGradient>
    <linearGradient id="Dégradé_sans_nom_29" data-name="Dégradé sans nom 29" x1="815.68" y1="120.58" x2="762.53" y2="28.52" gradientUnits="userSpaceOnUse">
      <stop offset="0" stop-color="#135e4f"/>
      <stop offset=".1" stop-color="#347261"/>
      <stop offset=".43" stop-color="#9cb19b"/>
      <stop offset=".66" stop-color="#ddd8bf"/>
      <stop offset=".77" stop-color="#f7e8ce"/>
      <stop offset="1" stop-color="#b99992"/>
    </linearGradient>
    <linearGradient id="Nouvelle_nuance_de_dégradé_1_3" data-name="Nouvelle nuance de dégradé 1 3" x1="823.41" y1="116.09" x2="770.28" y2="24.06" gradientUnits="userSpaceOnUse">
      <stop offset="0" stop-color="#135e4f"/>
      <stop offset=".1" stop-color="#347261"/>
      <stop offset=".43" stop-color="#9cb19b"/>
      <stop offset=".66" stop-color="#ddd8bf"/>
      <stop offset=".77" stop-color="#f7e8ce"/>
      <stop offset=".82" stop-color="#f9d791"/>
      <stop offset=".88" stop-color="#fbc753"/>
      <stop offset=".94" stop-color="#fdbb26"/>
      <stop offset=".98" stop-color="#feb30a"/>
      <stop offset="1" stop-color="#ffb100"/>
    </linearGradient>
  </defs>
  <polygon class="cls-3" points="734.74 15.08 711.92 15.08 711.93 23.52 725.84 23.52 725.84 142.55 734.74 142.55 734.74 15.08"/>
  <path class="cls-7" d="M791.56,15.08c-32.62,0-59.06,28.54-59.06,63.74s26.44,63.74,59.06,63.74c10.96,0,21.21-3.22,30.01-8.83,17.39-11.09,29.05-31.53,29.05-54.91,0-35.2-26.44-63.74-59.06-63.74ZM791.52,134.76c-28.38,0-51.38-24.86-51.38-55.53s23-55.53,51.38-55.53,51.38,24.86,51.38,55.53-23,55.53-51.38,55.53Z"/>
  <path class="cls-9" d="M829.13,29.63c-10.21-9.09-23.3-14.55-37.57-14.55-.96,0-1.92.03-2.87.08-.32.02-.63.05-.94.07-.63.04-1.27.09-1.89.16-.37.04-.73.09-1.1.13-.57.07-1.14.15-1.71.23-.38.06-.76.12-1.13.19-.55.1-1.09.2-1.64.32-.38.08-.75.16-1.13.25-.54.13-1.08.26-1.62.4-.36.1-.73.19-1.08.29-.56.16-1.12.34-1.68.51-.32.1-.65.2-.97.31-.71.24-1.41.5-2.11.77-.16.06-.32.12-.48.18-.84.33-1.67.69-2.48,1.06-.31.14-.62.3-.93.45-.51.24-1.03.49-1.53.75-.35.18-.7.37-1.05.56-.46.25-.91.49-1.36.75-.36.21-.71.42-1.07.63-.43.26-.86.52-1.28.79-.35.23-.71.46-1.06.69-.41.28-.82.56-1.23.85-.34.24-.68.48-1.02.73-.41.31-.82.62-1.23.94-.32.25-.64.49-.95.74-.46.38-.92.77-1.37,1.16-.24.21-.49.41-.72.62,1.91.76,6,3.52,7.78,4.31,9.91-6.99,18.06-10.41,29.81-10.29,31.21.32,51.66,27.21,51.38,54.77-.31,30.29-20.48,55.21-51.38,56.29-2.91.1-5.56-.17-8.35-.65-2.34,3.03-4.55,6.75-4.66,6.86.02,0,.05.01.07.02,21.37,4.4,39.43-1.96,53.1-15.41,11.64-11.64,18.93-28.28,18.93-46.76h0c0-19.8-8.37-37.49-21.49-49.18Z"/>
  <path class="cls-4" d="M829.13,29.63c-8.68-7.73-19.66-13.18-31.25-14.18-.8,1.79-1.75,6.61-2.21,8.56,18.78,1.42,35.64,14.03,43.42,34.49,1.81-.86,5.51-2.73,7.11-3.9-3.72-9.78-9.63-18.35-17.08-24.98Z"/>
  <g>
    <g>
      <path class="cls-5" d="M220.8,16.04v30.18h-29.25v53.16c0,8.12,3.48,12.07,11.37,12.07,6.5,0,12.3-1.63,17.41-4.41v28.32c-7.43,4.41-16.02,7.2-27.85,7.2-21.59,0-36.21-8.59-36.21-37.37v-58.96h-14.86v-30.18h79.39Z"/>
      <path class="cls-5" d="M236.57,16.04h35.75l19.96,75.44,23.45-75.91h30.41l23.68,76.14,20.43-75.67h35.05l-38.77,125.35h-31.8l-23.91-76.37-24.37,76.37h-31.57l-38.3-125.35Z"/>
      <path class="cls-5" d="M448.24,16.04h35.28v124.42h-35.28V16.04Z"/>
      <path class="cls-5" d="M516.71,16.04h35.28v17.64c8.12-10.45,18.57-19.96,36.44-19.96,26.69,0,42.25,17.64,42.25,46.19v80.55h-35.28v-69.41c0-16.71-7.89-25.3-21.36-25.3s-22.05,8.59-22.05,25.3v69.41h-35.28V16.04Z"/>
    </g>
    <path class="cls-8" d="M4.95,96.59V16.04h35.28v69.41c0,16.71,7.89,25.3,21.35,25.3s22.05-8.59,22.05-25.3V16.04h35.28v124.42h-35.28v-17.64c-8.12,10.45-18.57,19.96-36.44,19.96-26.69,0-42.25-17.64-42.25-46.19Z"/>
  </g>
  <g>
    <path class="cls-6" d="M771.75,82.72l-1.94,5.89h-2.51l6.38-18.75h2.91l6.4,18.75h-2.59l-2.01-5.89h-6.64ZM777.91,80.82l-1.86-5.39c-.41-1.23-.69-2.34-.97-3.43h-.07c-.27,1.1-.56,2.24-.93,3.39l-1.84,5.43h5.66Z"/>
    <path class="cls-6" d="M785.73,88.61v-18.75h2.66l6,9.47c1.37,2.2,2.46,4.17,3.35,6.1l.06-.02c-.22-2.5-.27-4.79-.27-7.69v-7.86h2.28v18.75h-2.46l-5.96-9.51c-1.29-2.1-2.55-4.24-3.49-6.28l-.08.03c.14,2.38.18,4.63.18,7.73v8.02h-2.28Z"/>
    <path class="cls-6" d="M803.72,85.66c1.08.68,2.66,1.22,4.33,1.22,2.48,0,3.93-1.3,3.93-3.2,0-1.74-1.01-2.77-3.54-3.71-3.06-1.08-4.96-2.69-4.96-5.32,0-2.92,2.43-5.09,6.08-5.09,1.9,0,3.32.45,4.14.91l-.68,1.99c-.6-.36-1.85-.89-3.54-.89-2.58,0-3.55,1.53-3.55,2.81,0,1.74,1.14,2.6,3.73,3.6,3.18,1.25,4.78,2.77,4.78,5.52s-2.12,5.4-6.56,5.4c-1.81,0-3.79-.55-4.79-1.22l.64-2.02Z"/>
  </g>
  <line class="cls-2" x1="677.13" y1="95.93" x2="677.13" y2="142.55"/>
  <line class="cls-1" x1="677.13" y1="15.08" x2="677.13" y2="61.7"/>
</svg>